<svg id="Capa_1" enable-background="new 0 0 512 512" height="512" viewBox="0 0 512 512" width="512" xmlns="http://www.w3.org/2000/svg"><g><path d="m180.537 127.114s40.889-17.196 56.878-67.934c9.981-31.675 24.738-44.265 34.173-49.235 4.719-2.486 10.548-1.017 13.535 3.401l3.932 5.816c1.924 2.845 2.334 6.448 1.082 9.646-6.519 16.664-22.157 71.555 41.326 98.305v31.765h-150.926z" fill="#27e19d"/><path d="m331.46 127.11v31.77h-75.46c-2.99-107.59 34.14-130.07 34.14-130.07-6.52 16.66-22.16 71.55 41.32 98.3z" fill="#20b69f"/><g><g><g><g><ellipse cx="109.017" cy="310.783" fill="#e25010" rx="101.517" ry="159.928"/><ellipse cx="402.983" cy="310.783" fill="#f2671f" rx="101.517" ry="159.928"/></g><ellipse cx="174.195" cy="310.783" fill="#f2671f" rx="116.379" ry="183.342"/><ellipse cx="337.805" cy="310.783" fill="#f2671f" rx="116.379" ry="183.342"/><path d="m454.191 310.781c0 101.252-52.115 183.35-116.381 183.35-7.075 0-13.992-.992-20.722-2.891 54.387-15.401 95.658-90.352 95.658-180.459 0-90.108-41.272-165.044-95.658-180.445 6.73-1.898 13.647-2.891 20.722-2.891 64.266 0 116.381 82.083 116.381 183.336z" fill="#e25010"/><g><ellipse cx="253.012" cy="310.783" fill="#fb8627" rx="105.33" ry="192.484"/><path d="m358.345 310.781c0 106.314-47.168 192.481-105.336 192.481-8.038 0-15.876-1.654-23.411-4.774 46.909-19.442 81.925-96.104 81.925-187.707s-35.016-168.251-81.925-187.707c7.535-3.121 15.373-4.774 23.411-4.774 58.169-.001 105.336 86.181 105.336 192.481z" fill="#fb7722"/></g></g></g></g><g><g><circle cx="154.107" cy="246.951" fill="#ffd496" r="51.667"/><path d="m205.77 246.95c0 28.54-23.13 51.67-51.66 51.67-12.92 0-24.74-4.74-33.8-12.58.47.01.94.02 1.42.02 28.54 0 51.67-23.14 51.67-51.67 0-15.62-6.93-29.61-17.87-39.09 27.88.75 50.24 23.6 50.24 51.65z" fill="#fcc16d"/><path d="m199.849 222.922c-6.705-3.183-14.213-4.967-22.136-4.967-28.529 0-51.666 23.128-51.666 51.666 0 8.669 2.134 16.848 5.912 24.025-17.452-8.292-29.521-26.083-29.521-46.689 0-28.539 23.137-51.676 51.666-51.676 19.86-.001 37.104 11.209 45.745 27.641z" fill="#fcb44d"/><g><path d="m128.57 285.6c.9 2.8 2.04 5.48 3.39 8.04-4.22-2.01-8.13-4.57-11.62-7.6.46.01.92.02 1.39.02 2.32 0 4.6-.15 6.84-.46z" fill="#fca62f"/><path d="m199.85 222.92c-6.71-3.18-14.21-4.97-22.14-4.97-2.32 0-4.6.15-6.84.45-2.94-9.06-8.31-17.01-15.34-23.1 19.26.52 35.89 11.59 44.32 27.62z" fill="#fb9927"/></g></g><g><circle cx="357.893" cy="246.951" fill="#ffd496" r="51.667"/><path d="m409.56 246.95c0 28.54-23.13 51.67-51.67 51.67-12.92 0-24.73-4.74-33.79-12.58.47.01.94.02 1.42.02 28.53 0 51.66-23.14 51.66-51.67 0-15.62-6.93-29.61-17.87-39.09 27.89.75 50.25 23.6 50.25 51.65z" fill="#fcc16d"/><path d="m409.562 246.956c0 20.606-12.069 38.398-29.521 46.689 3.777-7.177 5.912-15.355 5.912-24.025 0-28.539-23.137-51.666-51.666-51.666-7.923 0-15.431 1.785-22.136 4.967 8.641-16.432 25.885-27.642 45.745-27.642 28.529.001 51.666 23.138 51.666 51.677z" fill="#fcb44d"/><path d="m409.56 246.96c0 20.6-12.07 38.39-29.52 46.68 3.78-7.17 5.91-15.35 5.91-24.02 0-10.88-3.36-20.98-9.11-29.31.23-1.94.34-3.92.34-5.92 0-15.62-6.93-29.61-17.87-39.09 27.88.75 50.25 23.59 50.25 51.66z" fill="#fb9927"/></g></g><g><path d="m417.138 338.311c-28.82 57.29-90.14 111.311-161.14 111.311-70.99 0-132.32-54.021-161.14-111.311-4.66-9.26 5.43-18.95 14.54-13.99 18.44 10.05 41.74 15.47 68.24 18.34.521 5.07 1.57 12.905 3.592 20.698 1.145 4.415 5.129 7.502 9.689 7.502h15.469c5.523 0 10-4.477 10-10v-15.63c12.78.43 26.03.56 39.61.56 58.87 0 111.53-2.35 146.6-21.47 9.11-4.96 19.21 4.73 14.54 13.99z" fill="#fcb44d"/><path d="m417.14 338.31c-28.82 57.29-90.14 111.31-161.14 111.31-6.2 0-12.33-.41-18.37-1.21 52.96-15.1 95.14-55.77 112.34-107.81 20.08-3.18 37.9-8.25 52.63-16.28 9.11-4.96 19.21 4.73 14.54 13.99z" fill="#fb9927"/><path d="m417.14 338.31c-28.82 57.29-90.14 111.31-161.14 111.31-70.99 0-132.32-54.02-161.14-111.31-4.66-9.26 5.43-18.95 14.54-13.99 3.28 1.79 6.71 3.43 10.29 4.93 29.35 48.66 79.45 89.93 136.31 89.93s106.94-41.26 136.28-89.91h.01c3.58-1.52 7.02-3.16 10.31-4.95 9.11-4.96 19.21 4.73 14.54 13.99z" fill="#ffd496"/><path d="m417.14 338.31c-28.82 57.29-90.14 111.31-161.14 111.31-6.2 0-12.32-.41-18.36-1.21 26.81-7.65 50.85-21.84 70.29-40.75 34.79-15.58 64.38-45.27 84.35-78.39h.01c3.58-1.52 7.02-3.16 10.31-4.95 9.11-4.96 19.21 4.73 14.54 13.99z" fill="#fcc16d"/></g><path d="m481.098 193.675c-20.6-32.453-48.342-50.326-78.118-50.326-1.712 0-3.428.079-5.132.2-17.799-15.085-38.274-23.609-60.038-23.609-1.273 0-2.544.039-3.813.098-3.998-1.702-7.648-3.522-10.979-5.442 13.706-2.09 29.257-10.145 46.426-24.113 20.225-16.455 40.35-21.543 56.667-14.333 11.356 5.02 17.803 14.866 18.09 20.045.229 4.136 3.768 7.306 7.904 7.072 4.136-.229 7.302-3.769 7.072-7.904-.594-10.697-10.06-25.444-27.003-32.932-12.59-5.566-38.708-10.831-72.198 16.416-24.08 19.591-39.132 22.276-47.53 21.071-7.286-1.043-11.538-5.212-13.822-8.526-.082-.119-.173-.228-.261-.34-12.746-22.108-6.161-46.938-1.242-59.512 2.146-5.488 1.454-11.686-1.854-16.579l-3.932-5.816c-5.139-7.601-15.131-10.11-23.244-5.836-11.451 6.033-27.31 20.231-37.831 53.616-1.069 3.393-2.272 6.607-3.561 9.687-1.315 2.592-4.065 6.59-8.843 7.623-6.968 1.508-17.376-3.222-29.32-13.314-3.165-2.674-7.897-2.276-10.569.888-2.674 3.164-2.276 7.896.888 10.569 12.618 10.662 24.094 16.373 34.237 17.062-3.033 2.179-9.604 5.524-20.435 4.473-12.814-1.248-34.845-9.078-67.035-39.302-21.536-20.22-48.997-19.209-64.993-7.762-14.715 10.534-18.992 27.814-11.16 45.098 5.832 12.87 15.471 20.177 26.548 20.176.289 0 .581-.005.872-.015 10.547-.363 20.161-7.388 23.922-17.481 3.708-9.951.783-20.658-7.824-28.64-3.038-2.817-7.783-2.637-10.599.399-2.817 3.037-2.638 7.783.399 10.599 4.177 3.874 5.549 8.163 3.969 12.404-1.612 4.326-5.979 7.576-10.382 7.728-5.137.164-9.841-3.857-13.241-11.362-4.839-10.677-2.569-20.412 6.228-26.708 11.02-7.885 30.355-8.185 45.996 6.5 28.316 26.586 53.835 41.153 75.85 43.295 1.27.124 2.493.192 3.69.232-8.462 6.831-15.292 10.209-16.905 10.96-1.265-.058-2.531-.095-3.8-.095-20.481 0-40.736 7.763-58.576 22.45-.459.378-.911.779-1.368 1.166-1.734-.125-3.483-.206-5.227-.206-29.776 0-57.519 17.873-78.118 50.326-19.928 31.395-30.903 72.983-30.903 117.105 0 44.126 10.975 85.716 30.902 117.108 20.599 32.45 48.342 50.322 78.118 50.322 1.713 0 3.43-.079 5.134-.2 18.109 15.413 38.613 23.61 60.036 23.61 11.499 0 22.854-2.4 33.803-7.124 14.069 10.683 29.44 16.271 45.019 16.271 16.743 0 32.782-6.241 47.304-17.959 12.079 5.843 24.673 8.812 37.494 8.812 21.271 0 41.813-8.218 59.961-23.615 1.729.124 3.472.205 5.209.205 29.776 0 57.52-17.872 78.118-50.322 19.927-31.392 30.902-72.982 30.902-117.108 0-44.122-10.975-85.71-30.902-117.105zm-123.204 97.444c-24.354 0-44.167-19.813-44.167-44.167 0-6.511 1.428-12.692 3.969-18.262 5.267-2.138 10.841-3.235 16.592-3.235 24.353 0 44.166 19.813 44.166 44.166 0 6.378-1.335 12.509-3.943 18.243-5.134 2.092-10.741 3.255-16.617 3.255zm-23.607-80.665c-.428 0-.853.023-1.28.032 7.092-4.855 15.662-7.702 24.887-7.702 24.354 0 44.167 19.813 44.167 44.167 0 9.856-3.247 18.968-8.725 26.324.073-1.212.118-2.43.118-3.655-.001-32.624-26.543-59.166-59.167-59.166zm-35.561 36.497c0 30.224 22.785 55.212 52.078 58.728.025 1.702.038 3.408.038 5.104 0 7.409-.252 14.841-.72 22.162-22.656 3.731-47.348 4.805-70.485 5.175-4.142.066-7.445 3.478-7.379 7.619.066 4.142 3.482 7.427 7.619 7.379 32.405-.519 65.408-2.281 93.82-9.741-26.708 35.46-68.59 68.303-117.697 68.303-49.135 0-91.026-32.856-117.75-68.354 9.808 2.566 20.658 4.592 32.651 6.098.652 4.698 1.627 10.258 3.069 15.817 2.003 7.724 8.973 13.119 16.949 13.119h15.469c9.649 0 17.5-7.851 17.5-17.5v-7.911c6.261.152 13.008.25 20.424.3h.051c4.119 0 7.472-3.325 7.499-7.45.027-4.142-3.309-7.522-7.45-7.55-10.439-.069-19.523-.237-27.771-.515-2.009-.072-4.003.69-5.465 2.104-1.461 1.413-2.287 3.359-2.287 5.392v15.63c0 1.378-1.122 2.5-2.5 2.5h-15.469c-1.143 0-2.142-.775-2.43-1.884-1.888-7.28-2.886-14.667-3.391-19.582-.362-3.521-3.135-6.309-6.653-6.69-8.085-.875-15.6-1.981-22.611-3.309-.425-6.979-.653-14.061-.653-21.112 0-1.56.015-3.127.036-4.692 32.112-.597 58.057-26.887 58.057-59.139 0-24.14-14.539-44.937-35.315-54.128 18.651-42.082 46.436-67.024 75.053-67.024 29.218 0 57.468 25.876 76.126 69.468-18.124 10.123-30.413 29.491-30.413 51.683zm-42.728 195.171c-69.439 0-127.602-53.832-154.44-107.183-.873-1.734-.001-2.963.596-3.541.613-.593 1.904-1.446 3.656-.492 2.769 1.509 5.684 2.928 8.725 4.274 15.935 25.812 36.404 47.871 59.261 63.825 25.939 18.105 54.365 27.675 82.204 27.675 27.81 0 56.204-9.549 82.114-27.614 22.878-15.952 43.374-38.027 59.323-63.866 3.003-1.332 5.927-2.754 8.747-4.292 1.758-.957 3.05-.102 3.665.493.596.577 1.464 1.803.589 3.539-26.837 53.35-85 107.182-154.44 107.182zm-77.003-231.634c-.428-.009-.853-.033-1.282-.033-32.624 0-59.166 26.542-59.166 59.166 0 1.226.045 2.444.118 3.656-5.479-7.357-8.726-16.468-8.726-26.325 0-24.354 19.813-44.167 44.167-44.167 9.226-.001 17.797 2.847 24.889 7.703zm-41.505 77.375c-2.608-5.735-3.943-11.865-3.943-18.243 0-24.353 19.813-44.166 44.166-44.166 5.758 0 11.328 1.094 16.591 3.231 2.542 5.571 3.97 11.753 3.97 18.266 0 24.354-19.813 44.167-44.167 44.167-5.877.001-11.484-1.162-16.617-3.255zm162.74-159.075c-11.054-8.9-22.982-14.587-35.205-16.854 2.265-21.743 6.508-37.668 11.073-49.193.024 4.11.33 8.354 1.054 12.678 2.479 14.783 10.506 34.051 33.407 49.108-3.479 1.191-6.925 2.611-10.329 4.261zm-55.662-67.354c9.461-30.023 23.18-40.989 30.515-44.853 1.333-.704 2.979-.288 3.826.966l3.932 5.815c.253.375.404.797.468 1.23-7.552 6.41-27.307 28.429-33.252 86.282-14.85.651-29.097 6.204-42.167 16.149-2.564-1.104-5.151-2.083-7.757-2.93 14.306-10.461 34.152-30.026 44.435-62.659zm-146.332 374.97c-21.226-33.442-32.916-78.056-32.916-125.624 0-25.085 3.233-49.32 9.611-72.033 1.12-3.988-1.205-8.128-5.193-9.248-3.986-1.122-8.129 1.205-9.248 5.193-6.748 24.032-10.169 49.631-10.169 76.087 0 50.379 12.519 97.848 35.251 133.662 4.099 6.457 8.45 12.395 13.012 17.816-20.577-3.734-39.814-18.457-55.018-42.408-18.421-29.019-28.566-67.754-28.566-109.069 0-41.311 10.145-80.045 28.566-109.066 15.222-23.981 34.487-38.712 55.092-42.425-9.797 11.609-18.49 25.471-25.634 41.031-1.729 3.764-.078 8.217 3.687 9.945 1.014.465 2.078.686 3.125.686 2.84 0 5.558-1.622 6.821-4.373 20.598-44.858 53.32-71.639 87.534-71.639 7.126 0 14.199 1.155 21.133 3.387-12.165 12.729-22.975 29.631-31.863 50.203-3.048-.486-6.171-.747-9.354-.747-32.625 0-59.167 26.542-59.167 59.167 0 27.85 19.347 51.252 45.302 57.511-.036 2.107-.06 4.219-.06 6.321 0 5.886.153 11.796.438 17.655-10.611-2.871-19.78-6.423-27.635-10.704-7.108-3.87-15.456-2.737-21.265 2.888-5.784 5.6-7.181 13.866-3.562 21.06 15.394 30.601 40.489 61.347 72.038 83.407 9.209 23.609 21.322 43.587 35.218 58.116-6.968 2.252-14.073 3.416-21.225 3.416-28.424.001-55.399-17.833-75.953-50.215zm84.448 2.28c22.318 11.479 47.052 18.438 73.314 18.438 23.152 0 45.114-5.412 65.283-14.557-18.271 33.655-42.963 53.202-68.269 53.202-26.461 0-51.893-20.975-70.328-57.083zm285.75-18.835c-15.209 23.959-34.453 38.684-55.038 42.412 3.151-3.733 6.198-7.712 9.128-11.936 22.13-31.917 35.847-75.147 38.624-121.729.247-4.135-2.906-7.687-7.041-7.933-4.147-.234-7.687 2.906-7.933 7.041-2.615 43.874-15.392 84.386-35.977 114.074-20.051 28.917-45.758 44.842-72.387 44.842-8.677 0-17.265-1.668-25.631-4.968 12.054-13.067 22.73-30.284 31.459-51.143 35.386-22.262 63.5-55.629 80.197-88.82 3.626-7.191 2.234-15.458-3.548-21.06-5.812-5.631-14.163-6.767-21.279-2.893-9.816 5.352-21.276 9.291-33.681 12.202.336-6.351.515-12.763.515-19.156 0-1.731-.013-3.471-.037-5.208 28.896-3.88 51.256-28.682 51.256-58.623 0-32.625-26.542-59.167-59.167-59.167-5.123 0-10.096.656-14.84 1.886-8.456-19.822-19.035-36.804-30.962-49.73 8.392-3.32 17.01-5 25.719-5 26.561 0 52.218 15.854 72.246 44.643 20.556 29.548 33.369 69.906 36.078 113.641.247 3.977 3.548 7.037 7.479 7.037.156 0 .313-.005.471-.015 4.134-.256 7.278-3.815 7.022-7.95-3.388-54.68-21.31-101.868-47.601-132.978 20.543 3.76 39.747 18.477 54.929 42.396 18.42 29.021 28.565 67.755 28.565 109.066 0 41.315-10.145 80.05-28.566 109.069z"/></g></svg>