<svg id="Grupo_3" data-name="Grupo 3" xmlns="http://www.w3.org/2000/svg" width="48.854" height="48.854" viewBox="0 0 48.854 48.854">
  <defs>
    <style>
      .cls-1 {
        fill: #fff;
      }
    </style>
  </defs>
  <path id="Sustracción_1" data-name="Sustracción 1" class="cls-1" d="M24.427,48.854A24.434,24.434,0,0,1,14.919,1.92,24.433,24.433,0,0,1,33.935,46.935,24.274,24.274,0,0,1,24.427,48.854ZM19.039,20.5v3.975h2.313V35.7c1.569-.008,3.171-.062,4.761-.161V24.477h3.159l.381-3.975h-3.54V17.978a1.011,1.011,0,0,1,1.01-1.01h2.531V12.993h-4a4.3,4.3,0,0,0-4.3,4.3V20.5Z"/>
</svg>
