<svg xmlns="http://www.w3.org/2000/svg" width="29.575" height="60.709" viewBox="0 0 29.575 60.709">
  <defs>
    <style>
      .cls-1, .cls-2 {
        fill: none;
      }

      .cls-1, .cls-2, .cls-3 {
        stroke: #000;
        stroke-width: 0.6px;
      }

      .cls-1 {
        stroke-linecap: round;
      }
    </style>
  </defs>
  <g id="Logo" transform="translate(0.252 0.297)">
    <path id="Trazado_21369" data-name="Trazado 21369" class="cls-1" d="M-3.274-293.358c-.5.88-.32.839-.48,1.721a6.147,6.147,0,0,0,0,1.833,3.463,3.463,0,0,0,.964,1.485,1.21,1.21,0,0,0,1.361,0,7.232,7.232,0,0,0,.817-.627l.749-.573.4-.363v-1.031s-.239-.265-.563-.6-.554-.232-.734-.726.219-.774-.064-1.3-.937-.95-1.13-.9A2.017,2.017,0,0,0-3.274-293.358Z" transform="translate(19.908 295.724)"/>
    <path id="Trazado_21370" data-name="Trazado 21370" class="cls-2" d="M-13.586-275.22a3.71,3.71,0,0,1-.424.963c-.27.394-.22.375-.77.668a4.913,4.913,0,0,1-1.566.359,2.809,2.809,0,0,0-.937.218,3.8,3.8,0,0,0-.873.593s-.364,1.031-.744,2.617a16.682,16.682,0,0,0-.777,3.726,14.928,14.928,0,0,0,.122,4.594A7.734,7.734,0,0,0-18.439-258a18.627,18.627,0,0,0,1.284,2.491,10.621,10.621,0,0,0,.945,1.424,15.69,15.69,0,0,0,1.391,1.452" transform="translate(30.756 282.677)"/>
    <path id="Trazado_21371" data-name="Trazado 21371" class="cls-1" d="M-14.742-252.666l-.68-2.08s-.2-.758-.424-1.438-.475-1.1-.475-1.284a4.914,4.914,0,0,1,.218-1.053c.072-.258.289-.655.488-1.31a7.337,7.337,0,0,1,.462-1.014l.372-.835.692-1.247-.794-1.845-.732-1.568,1.828.343,1.536.4" transform="translate(28.394 276.646)"/>
    <path id="Trazado_21372" data-name="Trazado 21372" class="cls-1" d="M-10.081-265.717a3.584,3.584,0,0,1,.588-.309,4.481,4.481,0,0,1,1.145-.134c.45-.059.837-.1.837-.1h.446l-.68-.976L-8.758-269.3l.411,3.116" transform="translate(24.156 278.656)"/>
    <path id="Trazado_21373" data-name="Trazado 21373" class="cls-1" d="M8.994-280.274s-.068,1.818-.129,2.2-.152.536-.179.847a1.622,1.622,0,0,0,.308,1.258c.362.486.781.606,1.425,1.091.287.216.887.614.887.614a2.3,2.3,0,0,1,.6.67c.1.282.128.164.128,1.168a9.088,9.088,0,0,1-.6,2.542l-.8,1.464-.424.989a1.932,1.932,0,0,0,0,1.374c.282.745.52.795,1.13,1.6s.418.893,1.014,1.8c.192.291.6,1.049.6,1.049a8.067,8.067,0,0,1,.673,1.335,12.718,12.718,0,0,1,.083,3.021,2.451,2.451,0,0,1-.757,1.174c-.43.446-1.063,1.1-1.063,1.1" transform="translate(11.424 286.108)"/>
    <path id="Trazado_21374" data-name="Trazado 21374" class="cls-1" d="M21.461-211.976a2.1,2.1,0,0,0,.064.963c.16.234.352.189.506,0s.11-.758.11-.758" transform="translate(2.758 239.731)"/>
    <path id="Trazado_21375" data-name="Trazado 21375" class="cls-1" d="M9.945-266.419a7.533,7.533,0,0,1,.193,1.045,5.977,5.977,0,0,1-.142,1.44l.325-.109H11.2a1.793,1.793,0,0,1,.963.385c.169.2.128,1.066.128,1.066v.95" transform="translate(10.558 276.701)"/>
    <path id="Trazado_21376" data-name="Trazado 21376" class="cls-3" d="M-34.889-254.924l-1.035-1.6a4.015,4.015,0,0,0-1.736-.8,3.015,3.015,0,0,0-1.723.5,7.26,7.26,0,0,0-.995,2.275,3.532,3.532,0,0,0,.631,1.345,3.886,3.886,0,0,1,.728,1.555,17.682,17.682,0,0,1,0,3.619c-.123.577-.386,1.519-.546,2.1a6.43,6.43,0,0,0,.038,2.082c.068.7.643,1.042,1.147,2.325a6.935,6.935,0,0,1,.714,2.606,18.234,18.234,0,0,1,.068,2.31,14.619,14.619,0,0,1,.03,1.96,16.333,16.333,0,0,1-.559,2.842,34.935,34.935,0,0,1-1.416,4.071,11.285,11.285,0,0,1-1.466,2.636,24.093,24.093,0,0,1-5.387,6.285c-2.439,1.8-2.837,1.438-4.134,2.118s-2.233.639-2.977,1.414-.357,1.279-.053,1.9a2.511,2.511,0,0,0,1.772,1.592,8.182,8.182,0,0,0,3.274.63c1.895.158,2.375.014,4.057.166s1.391.619,2.683.578,1.377-.456,2.76-.608a27.207,27.207,0,0,1,2.837-.136h3.056c.566,0,1.115.276,1.554.256.328-.012.6-.177,1.04-.655s.827-.835.827-.835a19.512,19.512,0,0,0,0-2.128c-.009-.145,0-2.528,0-2.528v-8.32s.017-2.581-.173-4.189a12.937,12.937,0,0,0-.552-2.516,10.5,10.5,0,0,1-.308-2.157,15.078,15.078,0,0,1-.077-2.054c0-.979.03-1.006.077-1.862a6.059,6.059,0,0,1,.193-1.6c.193-.86.776-2.755.818-2.876a9.921,9.921,0,0,0,0-2.215,6.682,6.682,0,0,0-.382-1.6,7.135,7.135,0,0,0-.86-1.875c-.627-.97-1.412-2.131-1.412-2.131a4.678,4.678,0,0,1-.09-1.515,2.955,2.955,0,0,1,.354-1.169c.187-.389,1.184-1.565,1.028-2.3a1.778,1.778,0,0,0-.334-1.085,1.207,1.207,0,0,0-1.048-.417c-.74-.038-.8.291-1.456.768A3.258,3.258,0,0,0-34.889-254.924Z" transform="translate(53.936 270.531)"/>
    <path id="Trazado_21378" data-name="Trazado 21378" class="cls-1" d="M-2.838-288.275l.725-.078" transform="translate(19.238 291.594)"/>
    <path id="Trazado_21379" data-name="Trazado 21379" class="cls-1" d="M4.039-288.206l-.811-.045" transform="translate(15.01 291.525)"/>
    <path id="Trazado_21380" data-name="Trazado 21380" class="cls-1" d="M-3.843-278.164a8.445,8.445,0,0,1-.134-2.841,2.764,2.764,0,0,1,.4-.777" transform="translate(20.038 284.258)"/>
    <path id="Trazado_21381" data-name="Trazado 21381" class="cls-1" d="M-5.31-286.211a3.086,3.086,0,0,0,.42-1.881c-.017-.607-.228-.741-.141-1.452s.04-1.1.141-1.471" transform="translate(20.917 293.385)"/>
    <path id="Trazado_21382" data-name="Trazado 21382" class="cls-2" d="M9.72-280.557c.108.22.3-.179.594-.313s.425.069.745,0,.3-.481.3-.481a1.285,1.285,0,0,0,.48-.79c.044-.465-.356-.485-.539-.835s-.187-.545-.565-.578a3.339,3.339,0,0,0-.857.077l-.073,1.244A7.785,7.785,0,0,0,9.72-280.557Z" transform="translate(10.733 288.34)"/>
    <path id="Trazado_21383" data-name="Trazado 21383" class="cls-1" d="M4.971-295.547s.365.37.677.632.319.309.6.523.61.425.61.425-.017-.775,0-1.036c.053-.795-.125-.9-.427-1.577s-.5-.464-.92-1.017c-.225-.293-.4-.632-.7-.75s-.366.148-.366.148" transform="translate(14.296 298.401)"/>
    <path id="Trazado_21384" data-name="Trazado 21384" class="cls-1" d="M1.071-294.771a16.894,16.894,0,0,1-1.143-1.284,6.53,6.53,0,0,1-.822-1.233c-.279-.537-.2-.629-.331-.854a1.235,1.235,0,0,0-.7-.3c-.356-.048-.472.089-.77.155a1.163,1.163,0,0,0-.672.473,1.158,1.158,0,0,0-.52.742,7,7,0,0,0-.07,1.443,14.335,14.335,0,0,1,1.062-1.1,2.271,2.271,0,0,1,.791-.491,2.067,2.067,0,0,1,.134-.59,1.72,1.72,0,0,1,.321-.473" transform="translate(20.002 298.453)"/>
    <path id="Trazado_21385" data-name="Trazado 21385" class="cls-1" d="M-12.081-262.368c.243.027,1.192-.085,2.208,0a4.15,4.15,0,0,1,1.018.3" transform="translate(25.515 273.972)"/>
    <path id="Trazado_21386" data-name="Trazado 21386" class="cls-1" d="M-9.2-268.659c.125.389.732,2.966.732,2.966" transform="translate(23.559 278.222)"/>
    <path id="Trazado_21387" data-name="Trazado 21387" class="cls-1" d="M12.328-266.3v1.566" transform="translate(8.94 277.261)"/>
    <path id="Trazado_21388" data-name="Trazado 21388" class="cls-1" d="M13.8-264.672v1.16" transform="translate(8.263 276.156)"/>
    <path id="Trazado_21389" data-name="Trazado 21389" class="cls-1" d="M10.713-264.036l1.287.717s.355.161.615.3a1.3,1.3,0,0,1,.418.387" transform="translate(10.037 275.403)"/>
    <path id="Trazado_21390" data-name="Trazado 21390" class="cls-3" d="M20.948-171.468a6.644,6.644,0,0,1,.625,1.243c.652,1.962,2.465,7.421,2.55,7.686.1.326,1.125,4.162,1.335,4.789a12.564,12.564,0,0,1,.475,3.107.651.651,0,0,1-.231.462c-.126.028-4.4.121-4.483,0v-6.031l-.067-10.013Z" transform="translate(3.086 212.225)"/>
    <path id="Trazado_21391" data-name="Trazado 21391" class="cls-1" d="M10.226-281.543s.339.148.509.046-.023-.354.17-.456.449.2.632,0-.06-.947-.06-.947" transform="translate(10.367 287.892)"/>
    <path id="Trazado_21392" data-name="Trazado 21392" class="cls-1" d="M-12.361-267.979l1.13,2.927" transform="translate(25.705 277.76)"/>
    <path id="Trazado_21393" data-name="Trazado 21393" class="cls-1" d="M17.595-259.179l-.263.257-.25.27" transform="translate(5.712 271.784)"/>
    <path id="Trazado_21394" data-name="Trazado 21394" class="cls-1" d="M-.78-259.881s-.095-.3.319.368,1.337,2.3,1.337,2.3" transform="translate(17.847 272.307)"/>
    <path id="Trazado_21395" data-name="Trazado 21395" class="cls-1" d="M9.518-258.883l-.524,1.546" transform="translate(11.088 271.615)"/>
    <path id="Trazado_21396" data-name="Trazado 21396" class="cls-2" d="M-3.148-286.206" transform="translate(19.449 290.137)"/>
  </g>
</svg>
