<svg xmlns="http://www.w3.org/2000/svg" width="30.277" height="62.164" viewBox="0 0 30.277 62.164">
  <defs>
    <style>
      .cls-1, .cls-2 {
        fill: none;
      }

      .cls-1, .cls-2, .cls-3 {
        stroke: #fff;
        stroke-width: 0.6px;
      }

      .cls-1 {
        stroke-linecap: round;
      }

      .cls-3 {
        fill: #fff;
      }
    </style>
  </defs>
  <g id="logo_pie_" data-name="logo pie}" transform="translate(0.251 0.297)">
    <path id="Trazado_21369" data-name="Trazado 21369" class="cls-1" d="M-3.261-293.332c-.516.9-.328.859-.491,1.762a6.3,6.3,0,0,0,0,1.878,3.546,3.546,0,0,0,.987,1.521,1.24,1.24,0,0,0,1.394,0,7.405,7.405,0,0,0,.836-.642l.767-.587.408-.372v-1.055s-.245-.271-.577-.61-.568-.238-.752-.744.224-.793-.065-1.329-.96-.973-1.157-.921A2.066,2.066,0,0,0-3.261-293.332Z" transform="translate(20.297 295.755)"/>
    <path id="Trazado_21370" data-name="Trazado 21370" class="cls-2" d="M-13.436-275.22a3.8,3.8,0,0,1-.434.986c-.277.4-.226.384-.789.684a5.032,5.032,0,0,1-1.6.368,2.877,2.877,0,0,0-.96.224,3.89,3.89,0,0,0-.894.607s-.373,1.056-.762,2.68a17.086,17.086,0,0,0-.8,3.816,15.29,15.29,0,0,0,.125,4.705,7.921,7.921,0,0,0,1.144,3.564,19.079,19.079,0,0,0,1.315,2.551,10.878,10.878,0,0,0,.968,1.459,16.07,16.07,0,0,0,1.425,1.487" transform="translate(31.021 282.857)"/>
    <path id="Trazado_21371" data-name="Trazado 21371" class="cls-1" d="M-14.7-252.335l-.7-2.13s-.2-.776-.434-1.473-.487-1.127-.487-1.315a5.033,5.033,0,0,1,.224-1.078c.074-.264.3-.671.5-1.341a7.514,7.514,0,0,1,.473-1.039l.381-.855.708-1.278-.813-1.89-.75-1.606,1.873.351,1.573.41" transform="translate(28.686 276.896)"/>
    <path id="Trazado_21372" data-name="Trazado 21372" class="cls-1" d="M-10.081-265.631a3.671,3.671,0,0,1,.6-.316,4.591,4.591,0,0,1,1.173-.138c.461-.06.858-.1.858-.1h.457l-.7-1L-8.726-269.3l.421,3.191" transform="translate(24.497 278.883)"/>
    <path id="Trazado_21373" data-name="Trazado 21373" class="cls-1" d="M9-280.274s-.07,1.862-.132,2.253-.155.549-.183.868A1.662,1.662,0,0,0,9-275.864c.371.5.8.621,1.46,1.118.294.222.908.629.908.629a2.354,2.354,0,0,1,.617.686c.105.289.131.168.131,1.2a9.308,9.308,0,0,1-.618,2.6l-.815,1.5-.434,1.013a1.979,1.979,0,0,0,0,1.407c.289.763.533.814,1.157,1.644s.429.915,1.039,1.841c.2.3.615,1.074.615,1.074a8.263,8.263,0,0,1,.689,1.368,13.026,13.026,0,0,1,.085,3.094,2.511,2.511,0,0,1-.775,1.2c-.441.457-1.088,1.125-1.088,1.125" transform="translate(11.911 286.25)"/>
    <path id="Trazado_21374" data-name="Trazado 21374" class="cls-1" d="M21.462-211.976a2.15,2.15,0,0,0,.066.986c.164.24.36.194.518,0s.113-.776.113-.776" transform="translate(3.343 240.403)"/>
    <path id="Trazado_21375" data-name="Trazado 21375" class="cls-1" d="M9.945-266.419a7.716,7.716,0,0,1,.2,1.07A6.122,6.122,0,0,1,10-263.875l.333-.112h.9a1.836,1.836,0,0,1,.986.395c.173.2.131,1.091.131,1.091v.973" transform="translate(11.054 276.949)"/>
    <path id="Trazado_21376" data-name="Trazado 21376" class="cls-3" d="M-34.428-254.866l-1.06-1.641a4.112,4.112,0,0,0-1.778-.821,3.088,3.088,0,0,0-1.765.508,7.435,7.435,0,0,0-1.019,2.33,3.618,3.618,0,0,0,.646,1.377,3.98,3.98,0,0,1,.746,1.592,18.111,18.111,0,0,1,0,3.706c-.126.591-.4,1.556-.559,2.155a6.585,6.585,0,0,0,.039,2.132c.07.716.659,1.067,1.175,2.381a7.1,7.1,0,0,1,.731,2.669,18.677,18.677,0,0,1,.07,2.365,14.974,14.974,0,0,1,.031,2.007,16.728,16.728,0,0,1-.573,2.911,35.781,35.781,0,0,1-1.45,4.17,11.557,11.557,0,0,1-1.5,2.7,24.675,24.675,0,0,1-5.517,6.437c-2.5,1.841-2.906,1.473-4.234,2.17s-2.287.654-3.049,1.448-.366,1.31-.054,1.944a2.571,2.571,0,0,0,1.815,1.631,8.38,8.38,0,0,0,3.353.645c1.941.161,2.432.014,4.155.17s1.425.634,2.748.592,1.41-.467,2.827-.622a27.862,27.862,0,0,1,2.906-.139h3.13c.58,0,1.142.283,1.591.262.336-.012.619-.181,1.065-.671s.847-.855.847-.855a19.985,19.985,0,0,0,0-2.18c-.01-.148,0-2.589,0-2.589V-224.6s.017-2.643-.177-4.291a13.249,13.249,0,0,0-.565-2.577,10.752,10.752,0,0,1-.316-2.209,15.442,15.442,0,0,1-.079-2.1c0-1,.031-1.031.079-1.907a6.205,6.205,0,0,1,.2-1.644c.2-.881.795-2.821.838-2.946a10.161,10.161,0,0,0,0-2.269,6.844,6.844,0,0,0-.391-1.637,7.308,7.308,0,0,0-.881-1.92c-.642-.993-1.446-2.183-1.446-2.183a4.791,4.791,0,0,1-.092-1.552,3.026,3.026,0,0,1,.362-1.2c.191-.4,1.213-1.6,1.053-2.36a1.821,1.821,0,0,0-.342-1.111,1.236,1.236,0,0,0-1.073-.427c-.758-.039-.822.3-1.491.786A3.336,3.336,0,0,0-34.428-254.866Z" transform="translate(53.936 270.85)"/>
    <path id="Trazado_21378" data-name="Trazado 21378" class="cls-1" d="M-2.838-288.273l.743-.08" transform="translate(19.635 291.673)"/>
    <path id="Trazado_21379" data-name="Trazado 21379" class="cls-1" d="M4.058-288.2l-.831-.046" transform="translate(15.452 291.604)"/>
    <path id="Trazado_21380" data-name="Trazado 21380" class="cls-1" d="M-3.839-278.077a8.65,8.65,0,0,1-.137-2.91,2.831,2.831,0,0,1,.413-.8" transform="translate(20.426 284.317)"/>
    <path id="Trazado_21381" data-name="Trazado 21381" class="cls-1" d="M-5.31-286.095a3.16,3.16,0,0,0,.431-1.926c-.017-.621-.233-.759-.144-1.488s.041-1.13.144-1.507" transform="translate(21.294 293.442)"/>
    <path id="Trazado_21382" data-name="Trazado 21382" class="cls-2" d="M9.721-280.485c.111.226.307-.183.609-.32s.436.071.763,0,.31-.492.31-.492a1.316,1.316,0,0,0,.492-.81c.045-.476-.364-.5-.552-.855s-.192-.558-.579-.592a3.419,3.419,0,0,0-.877.079L9.811-282.2A7.973,7.973,0,0,0,9.721-280.485Z" transform="translate(11.227 288.455)"/>
    <path id="Trazado_21383" data-name="Trazado 21383" class="cls-1" d="M4.984-295.479s.374.379.693.647.327.316.612.536.625.435.625.435-.018-.794,0-1.061c.054-.814-.128-.918-.437-1.615s-.508-.475-.942-1.041c-.23-.3-.41-.647-.719-.769s-.375.151-.375.151" transform="translate(14.749 298.402)"/>
    <path id="Trazado_21384" data-name="Trazado 21384" class="cls-1" d="M1.193-294.682A17.3,17.3,0,0,1,.023-296a6.689,6.689,0,0,1-.842-1.262c-.286-.55-.206-.644-.339-.875a1.265,1.265,0,0,0-.713-.309c-.365-.049-.484.091-.789.159a1.192,1.192,0,0,0-.688.485,1.186,1.186,0,0,0-.533.76,7.165,7.165,0,0,0-.072,1.478,14.683,14.683,0,0,1,1.088-1.131,2.326,2.326,0,0,1,.81-.5,2.117,2.117,0,0,1,.138-.6,1.762,1.762,0,0,1,.329-.485" transform="translate(20.39 298.453)"/>
    <path id="Trazado_21385" data-name="Trazado 21385" class="cls-1" d="M-12.081-262.367c.249.027,1.22-.087,2.262,0a4.249,4.249,0,0,1,1.043.3" transform="translate(25.84 274.252)"/>
    <path id="Trazado_21386" data-name="Trazado 21386" class="cls-1" d="M-9.2-268.659c.128.4.75,3.038.75,3.038" transform="translate(23.906 278.453)"/>
    <path id="Trazado_21387" data-name="Trazado 21387" class="cls-1" d="M12.328-266.3v1.6" transform="translate(9.455 277.526)"/>
    <path id="Trazado_21388" data-name="Trazado 21388" class="cls-1" d="M13.8-264.672v1.188" transform="translate(8.796 276.434)"/>
    <path id="Trazado_21389" data-name="Trazado 21389" class="cls-1" d="M10.713-264.036l1.318.735s.364.165.63.311a1.329,1.329,0,0,1,.428.4" transform="translate(10.539 275.678)"/>
    <path id="Trazado_21390" data-name="Trazado 21390" class="cls-3" d="M20.948-171.468a6.805,6.805,0,0,1,.641,1.273c.667,2.009,2.525,7.6,2.612,7.872.107.334,1.153,4.262,1.368,4.9a12.869,12.869,0,0,1,.487,3.182.667.667,0,0,1-.237.473c-.129.029-4.508.124-4.591,0v-6.177L21.158-170.2Z" transform="translate(3.668 213.211)"/>
    <path id="Trazado_21391" data-name="Trazado 21391" class="cls-1" d="M10.226-281.51s.347.152.521.047-.023-.362.174-.467.46.207.648,0-.062-.969-.062-.969" transform="translate(10.865 288.013)"/>
    <path id="Trazado_21392" data-name="Trazado 21392" class="cls-1" d="M-12.361-267.979l1.157,3" transform="translate(26.028 277.997)"/>
    <path id="Trazado_21393" data-name="Trazado 21393" class="cls-1" d="M17.607-259.179l-.27.263-.256.276" transform="translate(6.264 272.089)"/>
    <path id="Trazado_21394" data-name="Trazado 21394" class="cls-1" d="M-.78-259.88s-.1-.307.327.376,1.369,2.359,1.369,2.359" transform="translate(18.26 272.606)"/>
    <path id="Trazado_21395" data-name="Trazado 21395" class="cls-1" d="M9.531-258.883,8.994-257.3" transform="translate(11.573 271.923)"/>
    <path id="Trazado_21396" data-name="Trazado 21396" class="cls-2" d="M-3.148-286.206" transform="translate(19.843 290.232)"/>
  </g>
</svg>
