<svg xmlns="http://www.w3.org/2000/svg" width="155.888" height="320.712" viewBox="0 0 155.888 320.712">
  <defs>
    <style>
      .cls-1, .cls-2 {
        fill: none;
      }

      .cls-1, .cls-2, .cls-3 {
        stroke: #000;
        stroke-width: 2px;
      }

      .cls-1 {
        stroke-linecap: round;
      }
    </style>
  </defs>
  <g id="Nosotros" transform="translate(1 0.986)">
    <path id="Trazado_21369" data-name="Trazado 21369" class="cls-1" d="M-.906-288.725c-2.669,4.666-1.7,4.449-2.543,9.123a32.594,32.594,0,0,0,0,9.722s2.029,5.9,5.111,7.872a6.416,6.416,0,0,0,7.216,0,38.339,38.339,0,0,0,4.33-3.322l3.972-3.038,2.113-1.927v-5.464s-1.266-1.4-2.986-3.156-2.939-1.23-3.892-3.851,1.16-4.106-.338-6.88-4.97-5.039-5.991-4.765S1.763-293.391-.906-288.725Z" transform="translate(89.104 301.272)"/>
    <path id="Trazado_21370" data-name="Trazado 21370" class="cls-2" d="M13.146-275.22a19.669,19.669,0,0,1-2.247,5.106c-1.434,2.09-1.168,1.986-4.085,3.54s-8.305,1.906-8.305,1.906a14.9,14.9,0,0,0-4.97,1.157,20.134,20.134,0,0,0-4.63,3.144s-1.93,5.467-3.947,13.875-3.091,8.6-4.121,19.755-.825,13.655.649,24.358,1.487,8.647,5.923,18.449a98.773,98.773,0,0,0,6.808,13.207c2.116,3.207,1.914,3.74,5.012,7.552a83.194,83.194,0,0,0,7.378,7.7" transform="translate(77.892 314.757)"/>
    <path id="Trazado_21371" data-name="Trazado 21371" class="cls-1" d="M-7.948-193.838l-3.608-11.028s-1.055-4.016-2.247-7.625-2.519-5.835-2.519-6.808a26.052,26.052,0,0,1,1.157-5.582c.381-1.367,1.534-3.473,2.587-6.944a38.905,38.905,0,0,1,2.451-5.378l1.974-4.425,3.668-6.614L-8.7-258.023l-3.881-8.316,9.694,1.816L5.259-262.4" transform="translate(80.333 320.989)"/>
    <path id="Trazado_21372" data-name="Trazado 21372" class="cls-1" d="M-10.081-250.306a19,19,0,0,1,3.118-1.636c1.866-.778,3.687-.4,6.073-.713s4.439-.51,4.439-.51H5.917l-3.608-5.174L-3.069-269.3l2.18,16.52" transform="translate(84.713 318.912)"/>
    <path id="Trazado_21373" data-name="Trazado 21373" class="cls-1" d="M10.391-280.274s-.36,9.638-.684,11.664-.8,2.844-.95,4.493a8.6,8.6,0,0,0,1.634,6.671c1.922,2.576,4.142,3.215,7.556,5.786,1.523,1.147,4.7,3.256,4.7,3.256s2.651,2.054,3.2,3.552.681.869.681,6.195-3.2,13.479-3.2,13.479L19.1-217.416l-2.246,5.242a10.245,10.245,0,0,0,0,7.284c1.5,3.948,2.76,4.214,5.991,8.509s2.218,4.737,5.378,9.531c1.017,1.543,3.184,5.561,3.184,5.561s2.974,4.858,3.569,7.08,1.113,13.514.443,16.018-1.731,3.862-4.012,6.227-5.635,5.823-5.635,5.823" transform="translate(97.871 311.21)"/>
    <path id="Trazado_21374" data-name="Trazado 21374" class="cls-1" d="M21.584-211.976s-.511,3.863.34,5.106,1.865,1,2.682,0,.585-4.016.585-4.016" transform="translate(106.828 359.14)"/>
    <path id="Trazado_21375" data-name="Trazado 21375" class="cls-1" d="M9.945-266.419a39.943,39.943,0,0,1,1.024,5.539,31.689,31.689,0,0,1-.754,7.633l1.723-.579h4.638c1.2,0,4.208,1,5.106,2.042s.681,5.65.681,5.65v5.038" transform="translate(98.766 320.933)"/>
    <path id="Trazado_21376" data-name="Trazado 21376" class="cls-3" d="M47.055-244.558l-5.487-8.5s-4.926-3.914-9.2-4.248-8.2,2.024-9.137,2.63-5.448,10.233-5.275,12.063,1.45,4.189,3.343,7.13,3.2,4.734,3.861,8.244.651,16.127,0,19.188-2.048,8.056-2.894,11.158-.161,7.331.2,11.037,3.409,5.523,6.083,12.326,3.1,7.17,3.786,13.817a96.679,96.679,0,0,1,.363,12.246,77.519,77.519,0,0,1,.161,10.393A86.6,86.6,0,0,1,29.892-122a185.236,185.236,0,0,1-7.509,21.587c-3.533,8.949-3.988,7.492-7.774,13.978S-1.02-62.645-13.955-53.114-29-45.49-35.875-41.882s-11.839,3.386-15.786,7.5-1.894,6.784-.28,10.065,2.354,5.743,9.395,8.441,7.313,2.506,17.359,3.341,12.591.072,21.512.879S3.7-8.373,10.553-8.592s7.3-2.417,14.636-3.223a144.244,144.244,0,0,1,15.045-.72h16.2c3,0,5.913,1.463,8.237,1.356,1.739-.064,3.206-.936,5.514-3.472s4.387-4.425,4.387-4.425c.359.433.049-10.519,0-11.286s0-13.4,0-13.4V-87.881s.09-13.682-.915-22.213-1.527-7.188-2.927-13.343-1.123-5.855-1.634-11.437a79.944,79.944,0,0,1-.408-10.892c0-5.191.161-5.336.408-9.871s0-3.948,1.021-8.509,4.115-14.606,4.338-15.249a52.6,52.6,0,0,0,0-11.746,35.432,35.432,0,0,0-2.023-8.473,37.834,37.834,0,0,0-4.561-9.939c-3.324-5.141-7.488-11.3-7.488-11.3a24.8,24.8,0,0,1-.477-8.033,15.666,15.666,0,0,1,1.875-6.2c.989-2.065,6.278-8.3,5.45-12.217-.3-1.427.061-3.761-1.77-5.752s-3.058-2.084-5.555-2.212c-3.926-.2-4.254,1.542-7.72,4.071A17.273,17.273,0,0,0,47.055-244.558Z" transform="translate(53.936 327.309)"/>
    <path id="Trazado_21378" data-name="Trazado 21378" class="cls-1" d="M-2.838-287.941l3.845-.412" transform="translate(89.796 305.54)"/>
    <path id="Trazado_21379" data-name="Trazado 21379" class="cls-1" d="M7.528-288.013l-4.3-.237" transform="translate(93.477 305.612)"/>
    <path id="Trazado_21380" data-name="Trazado 21380" class="cls-1" d="M-3.1-262.6c-1.181-1.54-.978-9.438-.712-15.064.053-1.144,2.136-4.12,2.136-4.12" transform="translate(88.969 294.906)"/>
    <path id="Trazado_21381" data-name="Trazado 21381" class="cls-1" d="M-5.31-265.542c2.172-3.357,2.319-6.755,2.229-9.972s-1.207-3.93-.748-7.7.211-5.85.748-7.8" transform="translate(88.061 303.581)"/>
    <path id="Trazado_21382" data-name="Trazado 21382" class="cls-2" d="M9.86-267.642c.574,1.168,1.59-.948,3.151-1.657s2.256.368,3.948,0,1.6-2.549,1.6-2.549a6.814,6.814,0,0,0,2.548-4.191c.234-2.464-1.887-2.57-2.859-4.425s-.992-2.89-3-3.063a17.7,17.7,0,0,0-4.542.408l-.388,6.6S9.286-268.81,9.86-267.642Z" transform="translate(98.586 308.904)"/>
    <path id="Trazado_21383" data-name="Trazado 21383" class="cls-1" d="M7.252-283.374s1.938,1.964,3.587,3.352,1.692,1.636,3.168,2.775,3.235,2.252,3.235,2.252-.092-4.109,0-5.491c.281-4.214-.661-4.753-2.262-8.36s-2.631-2.46-4.877-5.391c-1.193-1.556-2.122-3.349-3.722-3.979s-1.941.783-1.941.783" transform="translate(94.904 298.506)"/>
    <path id="Trazado_21384" data-name="Trazado 21384" class="cls-1" d="M22.727-278.93a89.556,89.556,0,0,1-6.059-6.808,34.619,34.619,0,0,1-4.357-6.535c-1.481-2.847-1.064-3.335-1.753-4.529a6.548,6.548,0,0,0-3.693-1.6c-1.889-.254-2.5.474-4.085.823a6.17,6.17,0,0,0-3.563,2.51,6.14,6.14,0,0,0-2.758,3.935,37.092,37.092,0,0,0-.372,7.654,76.023,76.023,0,0,1,5.631-5.856,12.04,12.04,0,0,1,4.192-2.6,10.959,10.959,0,0,1,.713-3.13,9.119,9.119,0,0,1,1.7-2.51" transform="translate(89.007 298.453)"/>
    <path id="Trazado_21385" data-name="Trazado 21385" class="cls-1" d="M-12.081-262.228c1.29.141,6.318-.451,11.709,0a22,22,0,0,1,5.4,1.578" transform="translate(83.309 323.753)"/>
    <path id="Trazado_21386" data-name="Trazado 21386" class="cls-1" d="M-9.2-268.659c.661,2.065,3.88,15.726,3.88,15.726" transform="translate(85.331 319.36)"/>
    <path id="Trazado_21387" data-name="Trazado 21387" class="cls-1" d="M12.328-266.3v8.306" transform="translate(100.439 324.42)"/>
    <path id="Trazado_21388" data-name="Trazado 21388" class="cls-1" d="M13.8-264.672v6.148" transform="translate(103.172 325.563)"/>
    <path id="Trazado_21389" data-name="Trazado 21389" class="cls-1" d="M10.713-264.036l6.824,3.8s1.883.856,3.263,1.611a6.88,6.88,0,0,1,2.216,2.054" transform="translate(99.305 324.307)"/>
    <path id="Trazado_21390" data-name="Trazado 21390" class="cls-3" d="M20.948-171.468a35.228,35.228,0,0,1,3.316,6.588c3.455,10.4,13.07,39.348,13.521,40.752.556,1.731,5.967,22.066,7.08,25.392.807,2.411,2.658,11.16,2.519,16.474a3.452,3.452,0,0,1-1.225,2.451c-.668.148-23.335.643-23.768,0V-111.79l-.355-53.091Z" transform="translate(106.488 387.567)"/>
    <path id="Trazado_21391" data-name="Trazado 21391" class="cls-1" d="M10.226-275.7s1.8.786,2.7.242-.121-1.875.9-2.42,2.383,1.072,3.353,0-.32-5.019-.32-5.019" transform="translate(98.964 309.367)"/>
    <path id="Trazado_21392" data-name="Trazado 21392" class="cls-1" d="M-12.361-267.979l5.991,15.521" transform="translate(83.113 319.838)"/>
    <path id="Trazado_21393" data-name="Trazado 21393" class="cls-1" d="M19.8-259.179l-1.4,1.362-1.327,1.43" transform="translate(103.775 326.014)"/>
    <path id="Trazado_21394" data-name="Trazado 21394" class="cls-1" d="M-.74-259.592s-.5-1.591,1.693,1.949,7.088,12.211,7.088,12.211" transform="translate(91.234 325.474)"/>
    <path id="Trazado_21395" data-name="Trazado 21395" class="cls-1" d="M10.068-257.719,6.759-249.28" transform="translate(98.77 325.92)"/>
    <path id="Trazado_21396" data-name="Trazado 21396" class="cls-2" d="M-3.148-286.206" transform="translate(89.578 307.047)"/>
  </g>
</svg>
