<svg xmlns="http://www.w3.org/2000/svg" width="133.049" height="61.093" viewBox="0 0 133.049 61.093">
  <defs>
    <style>
      .cls-1 {
        fill: #fff;
      }
    </style>
  </defs>
  <path id="Trazado_21407" data-name="Trazado 21407" class="cls-1" d="M26.64-46.327a5.207,5.207,0,0,1,3.538,1.2q1.384,1.2,1.2,4.337-.062,1.046-.492,3.907t-1.046,6.737q-.615,3.876-1.384,8.336T27.009-13.1H28.3q.615,0,1.354-.062t1.538-.185a12.4,12.4,0,0,1-.677,1.384,10.98,10.98,0,0,1-.738,1.138,10.555,10.555,0,0,1-.861.984,6.552,6.552,0,0,1-1.292,1.2,8.707,8.707,0,0,1-1.415.831Q25.778-4.8,25.5-2.43t-.338,3.907a25.3,25.3,0,0,0,.123,4.368,19.668,19.668,0,0,0,.738,3.63,6.3,6.3,0,0,0,1.784,2.953l-7.137,2.338a7.2,7.2,0,0,1-1.077-2.8,29.382,29.382,0,0,1-.461-3.476,28.324,28.324,0,0,1-.062-4.184q.123-2.153.677-5.629t1.23-7.6A22.418,22.418,0,0,0,18.3-9.536a19.341,19.341,0,0,0-3.23-.246q-1.6,0-3.353.123t-3.476.308Q7.506-6.645,6.768-3.63q-.8,3.261-1.446,5.568T4.091,5.783A13.947,13.947,0,0,1,2.922,8.244,4.27,4.27,0,0,1,1.661,9.6a10.406,10.406,0,0,1-1.846.677q-1.046.308-2.646.615a36.8,36.8,0,0,1-4.122.492q.923-1.107,1.6-2.03A15.883,15.883,0,0,0-4,7.075Q-3.322,5.722-2.492,3.6T-.369-1.969Q.185-3.384.769-5.076T2.03-8.552Q-.185-8.244-1.723-8a13.131,13.131,0,0,0-1.846.369,2.581,2.581,0,0,1-.8,0q-.8-.123-.861-.8A1.362,1.362,0,0,1-4.645-9.6a13.206,13.206,0,0,1,1.569-.738q.492-.246,2.246-.892t4.276-1.384Q4.368-15.2,5.26-17.75t1.753-4.891q.861-2.338,1.661-4.4t1.477-3.538a53.981,53.981,0,0,1,2.676-5.014,33.972,33.972,0,0,1,3.753-5.137,21.427,21.427,0,0,1,4.676-4A9.98,9.98,0,0,1,26.64-46.327Zm-.677,12.8q.677-2.769.923-4.553a15.081,15.081,0,0,0,.185-2.8,2.473,2.473,0,0,0-.4-1.415,1.048,1.048,0,0,0-.831-.4,4.445,4.445,0,0,0-1.969.615,12.865,12.865,0,0,0-2.461,1.753,18.45,18.45,0,0,0-2.553,2.83,21.056,21.056,0,0,0-2.246,3.845q-1.415,3.2-3.2,7.844T9.536-13.966q1.23-.185,2.43-.308a23.206,23.206,0,0,1,2.369-.123q2.092,0,4,.154t3.507.338q.554-2.953,1.138-5.814t1.138-5.445L25.132-29.9Q25.594-32.054,25.963-33.53ZM53.095,1.538a5.248,5.248,0,0,1-2.43-.523,4.489,4.489,0,0,1-1.63-1.384,4.674,4.674,0,0,1-.8-2,6.172,6.172,0,0,1,.123-2.43q.185-.861.615-2.307t.892-3.138q.461-1.692.861-3.384a21.948,21.948,0,0,0,.523-3.076,6.556,6.556,0,0,0-.123-2.276,1.038,1.038,0,0,0-1.046-.892,3.864,3.864,0,0,0-2.03.646,11.279,11.279,0,0,0-2.123,1.753,25.558,25.558,0,0,0-2.153,2.553q-1.077,1.446-2.123,2.984-.554,2.092-.923,3.661t-.646,2.83q-.277,1.261-.523,2.215t-.431,1.815a2.389,2.389,0,0,1-1.107,1.2,9.7,9.7,0,0,1-1.969.954,5.585,5.585,0,0,1-1.815.369q-.769,0-.646-.554.062-.369.4-1.661t.8-3.045q.461-1.753.954-3.722t.923-3.753q.308-1.415.677-3.138.308-1.477.769-3.445t1.077-4.307a3.924,3.924,0,0,1,.892-.584,5.276,5.276,0,0,1,.954-.338,4.328,4.328,0,0,1,1.046-.246,7.929,7.929,0,0,1,.984.062,5.111,5.111,0,0,1,.892.215,2.54,2.54,0,0,1,.831.461q-.185.431-.431,1.2t-.492,1.63q-.246.984-.615,2.03a28.136,28.136,0,0,1,1.815-2.246,16.186,16.186,0,0,1,2.215-2.061A11.939,11.939,0,0,1,49.834-23.9a6.92,6.92,0,0,1,2.769-.584,3.448,3.448,0,0,1,2.092.677,4.486,4.486,0,0,1,1.446,1.876,8.3,8.3,0,0,1,.615,2.861,11.164,11.164,0,0,1-.461,3.63l-.677,2.707q-.308,1.292-.769,3.045T53.71-5.845a6.68,6.68,0,0,0-.277,2.338q.092.984,1.2.984a4.981,4.981,0,0,0,2.8-1.354,29.386,29.386,0,0,0,3.415-3.261q1.723-1.907,3.261-3.907t2.338-3.23a3.121,3.121,0,0,1,1.046-1.046.757.757,0,0,1,.769-.062q.277.185.277.831a3.859,3.859,0,0,1-.492,1.63q-.431.861-1.323,2.276T64.6-7.629q-1.23,1.6-2.646,3.23A28.669,28.669,0,0,1,59-1.446,18.125,18.125,0,0,1,55.956.708,5.95,5.95,0,0,1,53.095,1.538Zm42.39-13.781q-.861,1.23-2.215,3.045t-2.8,3.63q-1.446,1.815-2.83,3.322A14,14,0,0,1,85.333-.123a6.4,6.4,0,0,1-1.415.615A7.381,7.381,0,0,1,82.288.8,5.628,5.628,0,0,1,80.719.708,3.643,3.643,0,0,1,79.427.185a3.239,3.239,0,0,1-.923-1.23,10.691,10.691,0,0,1-.584-1.784A10.1,10.1,0,0,1,77.7-5.6a12.848,12.848,0,0,1-3.261,3.784A14.562,14.562,0,0,1,71.06.123a13.246,13.246,0,0,1-3.691.8A3.649,3.649,0,0,1,65.522.338a4.594,4.594,0,0,1-1.661-1.846A8.579,8.579,0,0,1,63-4.768a14.752,14.752,0,0,1,.492-4.768,22.81,22.81,0,0,1,2.738-6.829,27.316,27.316,0,0,1,4.091-5.26,18.208,18.208,0,0,1,4.368-3.292,6.914,6.914,0,0,1,3.568-.984,7.47,7.47,0,0,1,2.707.984A2.944,2.944,0,0,1,82.1-23.1a4.417,4.417,0,0,1-1.015,3.168,14.234,14.234,0,0,1,1.446-.246q.584-.062.892-.062a1.28,1.28,0,0,1,.492.062,1.4,1.4,0,0,1,.062.523,9.957,9.957,0,0,1-.185,1.446q-.185,1.046-.554,2.83t-.984,4.614q-.123.554-.215,1.015l-.185.923-.215,1.077-.308,1.538a7.612,7.612,0,0,0-.031,1.2,4.448,4.448,0,0,0,.215,1.2,1.943,1.943,0,0,0,.584.892,1.714,1.714,0,0,0,1.138.338,2.922,2.922,0,0,0,1.6-.769,17.943,17.943,0,0,0,2.092-1.969q1.107-1.2,2.307-2.646t2.246-2.8q1.046-1.354,1.876-2.4t1.2-1.538a1.825,1.825,0,0,1,.984-.646.663.663,0,0,1,.738.277,1.462,1.462,0,0,1,.092,1.107A4.616,4.616,0,0,1,95.484-12.243ZM77.458-9.536q.308-1.23.738-2.892t.738-3.2q.308-1.538.461-2.553t-.092-.954a5.689,5.689,0,0,0-.677.185,3.3,3.3,0,0,1-.8.185,8.3,8.3,0,0,0-.984.185,5.655,5.655,0,0,0,.584-1.63,3.5,3.5,0,0,0,.031-1.015,1.461,1.461,0,0,0-.246-.677q-.677-.554-2.369.892a20.939,20.939,0,0,0-3.907,5.322,16.361,16.361,0,0,0-1.477,3.415,21.659,21.659,0,0,0-.769,3.415,12.044,12.044,0,0,0-.092,2.8,2.729,2.729,0,0,0,.492,1.569,2.011,2.011,0,0,0,1.538.646,4.126,4.126,0,0,0,1.753-.492,10.076,10.076,0,0,0,1.784-1.2,14.308,14.308,0,0,0,1.6-1.538,15.16,15.16,0,0,0,1.169-1.477A3.294,3.294,0,0,0,77.458-9.536Zm27.439-26.7a3.628,3.628,0,0,1-.708,1.323,4.665,4.665,0,0,1-1.169,1.046,3.8,3.8,0,0,1-1.323.523,1.268,1.268,0,0,1-1.107-.246,2.94,2.94,0,0,1-1.354-2.123,3.688,3.688,0,0,1,.554-2.153,6.194,6.194,0,0,1,1.538-1.723,3.987,3.987,0,0,1,1.6-.831,1.3,1.3,0,0,1,1.138.277,2.558,2.558,0,0,1,.708,1.046,4.531,4.531,0,0,1,.277,1.446A4.344,4.344,0,0,1,104.9-36.237Zm-8.49,13.1a2.363,2.363,0,0,1,1.169-.615,16.162,16.162,0,0,1,1.784-.4,13.69,13.69,0,0,1,1.692-.185,3.048,3.048,0,0,1,.892.031,4.689,4.689,0,0,1-.308,1.292q-.369,1.23-.923,2.892T99.545-16.7q-.615,1.753-.923,2.861t-.738,2.492q-.431,1.384-.769,2.707a17.474,17.474,0,0,0-.461,2.492,3.311,3.311,0,0,0,.185,1.784,2.413,2.413,0,0,0,.677,1.015,1.306,1.306,0,0,0,.8.277,5.809,5.809,0,0,0,3.107-1.354,34.756,34.756,0,0,0,3.814-3.23q1.938-1.876,3.6-3.814a38.94,38.94,0,0,0,2.461-3.107,2.362,2.362,0,0,1,1.015-.8.892.892,0,0,1,.861.062,1,1,0,0,1,.369.8,2.386,2.386,0,0,1-.4,1.292,32.639,32.639,0,0,1-2.892,4.091,60.746,60.746,0,0,1-4.061,4.553,37.342,37.342,0,0,1-4.214,3.722,6.8,6.8,0,0,1-3.353,1.6A4.8,4.8,0,0,1,96.561.4,6.5,6.5,0,0,1,94.715-.708a6.361,6.361,0,0,1-1.384-1.661,4.459,4.459,0,0,1-.615-2,23.666,23.666,0,0,1,0-4.214,52.472,52.472,0,0,1,.677-5.476,44.907,44.907,0,0,1,1.261-5.322A11.463,11.463,0,0,1,96.407-23.133ZM117.325-2.092a1.688,1.688,0,0,0,.954.246,2.992,2.992,0,0,0,1.169-.246,4.465,4.465,0,0,0,1.107-.677,2.517,2.517,0,0,0,.769-1.107,3.793,3.793,0,0,0,0-1.938,18.332,18.332,0,0,0-.769-2.707q-.523-1.446-1.138-2.922t-1.046-2.707q-.369-.923-.615-1.723-.246-.677-.461-1.323a7.831,7.831,0,0,0-.338-.892q-.308.492-1.077,1.6t-1.661,2.307q-.892,1.2-1.692,2.215t-1.107,1.384a1.838,1.838,0,0,1-.954.646.84.84,0,0,1-.769-.185,1.114,1.114,0,0,1-.338-.8,2.172,2.172,0,0,1,.461-1.261q.369-.492,1.107-1.569t1.477-2.215q.738-1.138,1.354-2.03a7.7,7.7,0,0,0,.677-1.077,1.843,1.843,0,0,0-.338-1.292,2.273,2.273,0,0,1-.154-1.846,6.427,6.427,0,0,1,1.107-2,11.348,11.348,0,0,1,2.03-2.061,8.959,8.959,0,0,1,2.4-1.384,2.677,2.677,0,0,1,2.215.031,5.3,5.3,0,0,1,1.292,1.077,1.39,1.39,0,0,1,.369,1.2q-.123.308-.369.8a10.143,10.143,0,0,1-.738,1.2q-.492.708-1.415,1.815a17.411,17.411,0,0,0,.523,2.584q.338,1.169.646,2.03a16.688,16.688,0,0,0,.8,1.907q.554,1.107,1.169,2.276t1.107,2.307a21.681,21.681,0,0,1,.8,2.123,3.555,3.555,0,0,1,.185,1.661,7.753,7.753,0,0,1-1.077,2.522,16.523,16.523,0,0,1-2.215,2.861,13.614,13.614,0,0,1-3.015,2.369,6.935,6.935,0,0,1-3.538.984,4.431,4.431,0,0,1-2.492-.8A8.475,8.475,0,0,1,111.7-.584a8.451,8.451,0,0,1-1.23-2.123,1.93,1.93,0,0,1-.092-1.6,8.946,8.946,0,0,1,.677-1.169,6.428,6.428,0,0,1,.923-.984q.246-.185.615-.431a4.476,4.476,0,0,1,.861-.369l1.292-.431a28.707,28.707,0,0,0,1.107,2.984q.492,1.077.8,1.692A3.131,3.131,0,0,0,117.325-2.092Z" transform="translate(6.952 46.327)"/>
</svg>
