<svg xmlns="http://www.w3.org/2000/svg" width="24.52" height="24.013" viewBox="0 0 24.52 24.013">
  <defs>
    <style>
      .cls-1 {
        fill: #fff;
        stroke: #fff;
      }
    </style>
  </defs>
  <path id="Trazado_21399" data-name="Trazado 21399" class="cls-1" d="M1077.032,1924.886a13.95,13.95,0,0,0,.742,5.847,25.483,25.483,0,0,0,5.636,7.105,20.613,20.613,0,0,0,10.026,5.459c4.306,1.207,5.613-1.331,5.613-1.331s2.1-2.12,1.041-3.753-4.631-2.833-5.288-2.781-2.242,2.719-2.491,2.968-1.668.284-3.787-1.45a63.627,63.627,0,0,1-5.016-4.879s-1.2-1.821-1.041-2.439,2.442-1.736,2.235-2.508a45.267,45.267,0,0,0-2.474-6.193c-.442-.478-1.048-.477-3.017.253C1077.984,1921.637,1077.229,1923.666,1077.032,1924.886Z" transform="translate(-1076.435 -1920.177)"/>
</svg>
