<svg xmlns="http://www.w3.org/2000/svg" width="87" height="58" viewBox="0 0 87 58">
  <defs>
    <style>
      .cls-1 {
        fill: #fea500;
      }
    </style>
  </defs>
  <path id="Sustracción_2" data-name="Sustracción 2" class="cls-1" d="M77,58H10A10.011,10.011,0,0,1,0,48V10A10.011,10.011,0,0,1,10,0H77A10.012,10.012,0,0,1,87,10V48A10.012,10.012,0,0,1,77,58ZM40.159,31.619h0c.135,3.823,3.254,6.293,7.946,6.293,5.129,0,7.424-3.146,7.424-6.264,0-3.961-3.464-5.1-6.247-6.019-2.048-.675-3.816-1.257-3.816-2.739a1.779,1.779,0,0,1,2.008-1.857h.08A2.2,2.2,0,0,1,49.9,23.151h5.365c-.2-3.813-3.05-6.089-7.627-6.089-4.51,0-7.424,2.356-7.424,6-.034,4.194,3.455,5.289,6.259,6.168,2.072.65,3.862,1.212,3.862,2.792,0,1.181-.911,1.914-2.378,1.914a2.344,2.344,0,0,1-2.523-2.32Zm23.49,2.494h7.6l1.219,3.6h5.249L70.349,17.351H64.606L57.24,37.709h5.191l1.217-3.6ZM32.184,17.351V37.709h4.959V17.351H32.184ZM10.026,17.3c-1.806,0-3.7.113-4.824.18H5.188l-.023,0H5.144c-.177.011-.543.033-.782.064l.011.007A3.4,3.4,0,0,1,4.914,18a6.812,6.812,0,0,0,.752.364l.039.018A26.338,26.338,0,0,1,10.876,21.3L16.7,37.709H22.9l7.221-20.358H24.876L19.8,32.721l-.784-2.389c.323.42.526.69.581.763a.391.391,0,0,0,.037-.143.421.421,0,0,0-.025-.21H19.5l-.041-.126c-.031-.094-3.247-9.869-3.649-10.992-.044-.125-.083-.243-.119-.352a2.386,2.386,0,0,0-.59-1.114c-.037-.033-.074-.063-.112-.092l-.235-.716H11.911C11.352,17.318,10.718,17.3,10.026,17.3ZM69.971,30.285H64.954l2.494-7.453,2.523,7.452Z"/>
</svg>
