<svg xmlns="http://www.w3.org/2000/svg" width="48.85" height="48.85" viewBox="0 0 48.85 48.85">
  <defs>
    <style>
      .cls-1, .cls-3 {
        fill: #fff;
      }

      .cls-1 {
        stroke: #fff;
      }

      .cls-2, .cls-3 {
        stroke: none;
      }
    </style>
  </defs>
  <g id="Grupo_1" data-name="Grupo 1" transform="translate(0 0)">
    <g id="Trazado_2" data-name="Trazado 2" transform="translate(2.724 0)">
      <path class="cls-2" d="M 22.91708755493164 46.84999847412109 C 20.51911926269531 46.84999847412109 18.1724681854248 46.42688751220703 15.94232845306396 45.59243011474609 C 13.74809837341309 44.77140808105469 11.66180896759033 43.55131912231445 9.741408348083496 41.96604919433594 C 9.431808471679688 41.71085739135742 8.895158767700195 41.40773773193359 8.090398788452148 41.40773773193359 C 7.214281558990479 41.40773773193359 5.756499290466309 41.72279739379883 1.6534583568573 43.96330642700195 C 1.721722483634949 43.80023193359375 1.79000198841095 43.6359977722168 1.858028531074524 43.47113037109375 C 4.597978591918945 36.83050918579102 4.387438297271729 35.37492752075195 3.900098562240601 34.36598968505859 C 2.465628385543823 31.40074920654297 1.707688450813293 27.96358871459961 1.707688450813293 24.42499923706055 C 1.707688450813293 21.38435935974121 2.272798538208008 18.43656921386719 3.387328386306763 15.66352939605713 C 4.461698532104492 12.99038887023926 5.998618602752686 10.59085941314697 7.955398559570313 8.531589508056641 C 9.905338287353516 6.479519367218018 12.17328834533691 4.869619369506836 14.69624805450439 3.746599197387695 C 17.29996871948242 2.587639331817627 20.06585884094238 1.999999284744263 22.91708755493164 1.999999284744263 C 25.76831817626953 1.999999284744263 28.53420829772949 2.587639331817627 31.1379280090332 3.746599197387695 C 33.660888671875 4.869619369506836 35.92883682250977 6.479519367218018 37.87878036499023 8.531589508056641 C 39.8355598449707 10.59085941314697 41.37247848510742 12.99038887023926 42.44684982299805 15.66352939605713 C 43.56137847900391 18.43656921386719 44.12648773193359 21.38435935974121 44.12648773193359 24.42499923706055 C 44.12648773193359 27.46563911437988 43.56137847900391 30.41342926025391 42.44684982299805 33.18647003173828 C 41.37247848510742 35.8596076965332 39.8355598449707 38.25914001464844 37.87878036499023 40.31840896606445 C 35.92883682250977 42.37047958374023 33.660888671875 43.98038101196289 31.1379280090332 45.10339736938477 C 28.53420829772949 46.26235961914063 25.76831817626953 46.84999847412109 22.91708755493164 46.84999847412109 Z"/>
      <path class="cls-3" d="M 22.91708755493164 4 C 17.8248291015625 4 13.02621841430664 6.098617553710938 9.405220031738281 9.909267425537109 C 7.623180389404297 11.78464889526367 6.222820281982422 13.97159957885742 5.243038177490234 16.40937805175781 C 4.224246978759766 18.9442195892334 3.707679748535156 21.64106941223145 3.707679748535156 24.42499923706055 C 3.707679748535156 27.61746978759766 4.415218353271484 30.83820915222168 5.701019287109375 33.49610900878906 C 6.357738494873047 34.85572052001953 6.480373382568359 36.41492462158203 5.304054260253906 40.0015754699707 C 6.544567108154297 39.5420036315918 7.378768920898438 39.40773773193359 8.090396881103516 39.40773773193359 C 9.488590240478516 39.40773773193359 10.45111846923828 39.95919799804688 11.01461791992188 40.42366790771484 C 12.76352882385254 41.86737060546875 14.65725898742676 42.97616958618164 16.64321899414063 43.71926116943359 C 18.6484489440918 44.46955871582031 20.75927925109863 44.84999847412109 22.91708755493164 44.84999847412109 C 28.00934982299805 44.84999847412109 32.80794906616211 42.75138092041016 36.42894744873047 38.94072723388672 C 38.21098709106445 37.06534957885742 39.61134719848633 34.87839889526367 40.59112930297852 32.44062805175781 C 41.60991668701172 29.9057788848877 42.12648773193359 27.20892906188965 42.12648773193359 24.42499923706055 C 42.12648773193359 21.64106941223145 41.60991668701172 18.9442195892334 40.59112930297852 16.40937042236328 C 39.61134719848633 13.97159957885742 38.21098709106445 11.78464889526367 36.42894744873047 9.909267425537109 C 32.80794906616211 6.098617553710938 28.00934982299805 4 22.91708755493164 4 M 22.91708755493164 0 C 35.73529052734375 0 46.12648773193359 10.93544769287109 46.12648773193359 24.42499923706055 C 46.12648773193359 37.91455078125 35.73529052734375 48.84999847412109 22.91708755493164 48.84999847412109 C 17.55832862854004 48.84999847412109 12.62373924255371 46.93877029418945 8.468196868896484 43.50843048095703 C 8.384834289550781 43.43971252441406 8.256435394287109 43.40774154663086 8.09039306640625 43.40774154663086 C 5.921302795410156 43.40774154663086 -2.7235107421875 48.84999847412109 -2.7235107421875 48.84999847412109 C -2.7235107421875 48.84999847412109 2.956207275390625 37.01017761230469 2.099178314208984 35.23587036132813 C 0.6120071411132813 32.16170883178711 -0.2923202514648438 28.40448951721191 -0.2923202514648438 24.42499923706055 C -0.2923202514648438 10.93544769287109 10.0988883972168 0 22.91708755493164 0 Z"/>
    </g>
    <path id="Trazado_21366" data-name="Trazado 21366" class="cls-1" d="M1077.042,1925.429a15.715,15.715,0,0,0,.835,6.588,28.715,28.715,0,0,0,6.351,8.006c4.325,3.826,6.445,4.791,11.3,6.151s6.324-1.5,6.324-1.5,2.369-2.388,1.173-4.229-5.218-3.192-5.959-3.133-2.526,3.064-2.807,3.344-1.879.321-4.267-1.634a71.683,71.683,0,0,1-5.651-5.5s-1.348-2.052-1.173-2.749,2.751-1.956,2.518-2.826a51.022,51.022,0,0,0-2.787-6.978c-.5-.539-1.181-.537-3.4.285C1078.114,1921.768,1077.264,1924.054,1077.042,1925.429Z" transform="translate(-1063.834 -1908.115)"/>
  </g>
</svg>
